<?xml version="1.0" encoding="utf-8"?>
<!-- Generator: Adobe Illustrator 22.0.0, SVG Export Plug-In . SVG Version: 6.00 Build 0)  -->
<svg version="1.1" xmlns="http://www.w3.org/2000/svg" xmlns:xlink="http://www.w3.org/1999/xlink" x="0px" y="0px"
	 viewBox="0 0 720 394" style="enable-background:new 0 0 720 394;" xml:space="preserve">
<style type="text/css">
	.st0{display:none;}
	.st1{display:inline;}
	.st2{fill:#FFFFFF;}
	.st3{fill:#2A7ABD;}
	.st4{fill:#194C66;}
	.st5{fill:#9413F3;}
	.st6{fill:#2BF4FF;}
	.st7{fill:#390863;}
	.st8{fill:#0F514F;}
</style>
<g id="TESTES" class="st0">
</g>
<g id="Camada_1">
	<g>
		<path class="st5" d="M138.8,168.1v57.7h-14.4v-43.3c-1.4,0-2.6,0.2-3.7,0.5c-2.9,0.7-5.3,1.9-7,3.7c-2.5,2.5-3.8,5.9-3.8,10.2
			v28.9H95.5V197c-0.1-0.6-0.2-1.2-0.3-1.8c-0.1-0.6-0.2-1.2-0.3-1.8c-0.7-2.9-1.9-5.3-3.7-7c-2.5-2.5-5.9-3.8-10.2-3.8H66.7
			l7.2-14.4h7.2c0.5,0,1.1,0,1.7,0.1c0.6,0,1.3,0.1,1.9,0.2c2.7,0.4,5.6,1.2,8.6,2.3c3.7,1.5,6.9,3.6,9.5,6.3
			c2.3-2.7,5.1-4.8,8.3-6.3c3.8-1.7,8.2-2.6,13.3-2.6H138.8z M66.7,225.9h14.4v-36.1H66.7V225.9z"/>
		<path class="st5" d="M146.1,182.6l7.2-14.4h21.7c1.1,0,2.3,0.1,3.5,0.3c1.2,0.2,2.5,0.4,3.9,0.8c5.7,1.4,10.4,3.9,13.9,7.5
			c5,5,7.5,11.8,7.5,20.4c0,8.6-2.5,15.3-7.4,20.3c-3.6,3.6-8.2,6.1-13.9,7.5c-2.9,0.7-5.4,1.1-7.5,1.1c-1.1,0-2.3-0.1-3.5-0.3
			c-1.2-0.2-2.5-0.4-3.9-0.8c-5.7-1.4-10.4-3.9-13.9-7.5c-5-5-7.5-11.8-7.5-20.4c0-2.6,0.2-5.1,0.6-7.2h15.6c-0.8,1.3-1.3,2.9-1.6,5
			c0,0.4-0.1,0.8-0.1,1.1c0,0.4-0.1,0.7-0.1,1.1c0.1,0.6,0.2,1.2,0.3,1.8c0.1,0.6,0.2,1.2,0.3,1.8c0.7,2.9,1.9,5.3,3.7,7
			c2.5,2.5,5.9,3.8,10.2,3.8c6.1,0,10.3-2.4,12.6-7.2c0.8-1.3,1.4-3.7,1.8-7.2c-0.1-0.6-0.2-1.2-0.3-1.8c-0.1-0.6-0.2-1.2-0.3-1.8
			c-0.7-2.9-1.9-5.3-3.7-7c-2.5-2.5-5.9-3.8-10.2-3.8H146.1z"/>
		<path class="st5" d="M207.9,182.6l7.2-14.4h50.5v14.4H244v43.3h-14.4v-43.3H207.9z"/>
		<path class="st5" d="M272.9,182.6l7.2-14.4h21.7c1.1,0,2.3,0.1,3.5,0.3c1.2,0.2,2.5,0.4,3.9,0.8c5.7,1.4,10.4,3.9,13.9,7.5
			c5,5,7.5,11.8,7.5,20.4c0,8.6-2.5,15.3-7.4,20.3c-3.6,3.6-8.2,6.1-13.9,7.5c-2.9,0.7-5.4,1.1-7.5,1.1c-1.1,0-2.3-0.1-3.5-0.3
			c-1.2-0.2-2.5-0.4-3.9-0.8c-5.7-1.4-10.4-3.9-13.9-7.5c-5-5-7.5-11.8-7.5-20.4c0-2.6,0.2-5.1,0.6-7.2h15.6c-0.8,1.3-1.3,2.9-1.6,5
			c0,0.4-0.1,0.8-0.1,1.1c0,0.4-0.1,0.7-0.1,1.1c0.1,0.6,0.2,1.2,0.3,1.8c0.1,0.6,0.2,1.2,0.3,1.8c0.7,2.9,1.9,5.3,3.7,7
			c2.5,2.5,5.9,3.8,10.2,3.8c6.1,0,10.3-2.4,12.6-7.2c0.8-1.3,1.4-3.7,1.8-7.2c-0.1-0.6-0.2-1.2-0.3-1.8c-0.1-0.6-0.2-1.2-0.3-1.8
			c-0.7-2.9-1.9-5.3-3.7-7c-2.5-2.5-5.9-3.8-10.2-3.8H272.9z"/>
		<path class="st5" d="M335.7,182.6l7.2-14.4h50.5v14.4H335.7z M335.7,225.9v-7.2c0.2-1.3,0.4-2.5,0.5-3.8c0.2-1.3,0.3-2.5,0.5-3.8
			c1.4-5.7,3.9-10.4,7.5-13.9c5-5,11.7-7.4,20.3-7.4h28.9v14.4h-28.9c-3.5,0.4-5.9,1-7.2,1.8c-4.8,2.4-7.2,6.6-7.2,12.6v7.2H335.7z"
			/>
		<path class="st5" d="M400.7,182.6l7.2-14.4h7.2v14.4H400.7z M400.7,189.8v7.2c0.2,1.3,0.4,2.5,0.5,3.8c0.2,1.3,0.3,2.5,0.5,3.8
			c1.4,5.7,3.9,10.4,7.5,13.9c5,5,11.7,7.4,20.3,7.4h28.9v-14.4h-28.9c-3.5-0.4-5.9-1-7.2-1.8c-4.8-2.4-7.2-6.6-7.2-12.6v-7.2H400.7
			z"/>
		<path class="st5" d="M465.7,182.6l7.2-14.4h21.7c2.1,0,4.6,0.4,7.5,1.1c5.7,1.4,10.4,3.9,13.9,7.5c5,5,7.4,11.7,7.4,20.3v28.9H509
			V197c-0.4-3.5-1-5.9-1.8-7.2c-2.4-4.8-6.6-7.2-12.6-7.2H465.7z M465.7,189.8h28.9c0.8,0.1,1.5,0.2,2.1,0.4
			c0.6,0.2,1.1,0.3,1.5,0.5c2.4,1.3,3.6,3.3,3.6,6.3v7.2h-21.7v21.7h-14.4V189.8z"/>
		<path class="st5" d="M588.4,168.1v14.4h-57.7l7.2-14.4H588.4z M530.9,189.8c0.7,4.3,2.5,7.7,5.6,10.2c2.1,1.7,4.8,3,8.1,3.7
			c0.8,0.2,1.5,0.3,2.2,0.4c0.7,0.1,1.3,0.1,1.9,0.1h21.7c0.5,0,0.9,0.1,1.2,0.2c1.6,0.5,2.5,1.6,2.5,3.4c0,1.8-0.8,2.9-2.5,3.5
			c0,0-0.2,0.1-0.4,0.1c-0.4,0-0.6,0-0.6,0.1h-39.7v14.4h39.7c1.5,0,3.1-0.2,4.7-0.7c3.7-0.9,6.6-2.5,8.7-4.6
			c3.1-3.1,4.6-7.3,4.6-12.7c0-5.4-1.6-9.6-4.7-12.8c-2.3-2.2-5.2-3.7-8.7-4.6c-1.7-0.4-3.3-0.6-4.6-0.6H530.9z"/>
		<path class="st5" d="M595.6,189.8h43.3v-21.7h14.4v57.7h-14.4v-21.7H610v21.7h-14.4V189.8z M610,168.1h-7.2l-7.2,14.4H610V168.1z"
			/>
	</g>
</g>
</svg>
